<svg width="150" height="48" viewBox="0 0 150 48" fill="none" xmlns="http://www.w3.org/2000/svg">
<rect width="46" height="48" fill="#81B3D2"/>
<rect x="52" width="46" height="48" fill="#81B3D2"/>
<rect x="104" width="46" height="48" fill="#81B3D2"/>
<path d="M81 17V13H77C74.7909 13 73 14.7909 73 17V21H69V25H73V35H77V25H81V21H77V17H81Z" fill="white"/>
<path d="M25.95 17.1441C27.635 16.6481 28.934 17.4141 29.527 18.3231C30.2 18.0921 30.858 17.8421 31.538 17.6151C31.5249 18.3015 31.2117 18.9476 30.681 19.3831C31.366 19.5531 31.985 18.8921 31.985 18.8921C31.816 19.8921 30.979 20.6801 30.422 20.9161C30.191 27.6661 27.247 32.1331 20.345 31.9981H19.899C19.489 31.9981 15.735 31.5381 15.001 30.1111C17.272 30.3071 18.894 29.6891 19.694 28.9341C18.734 28.6341 17.015 28.4571 16.715 25.9841C17.064 26.0901 17.279 26.2121 17.905 26.1031C16.705 25.2471 15.374 24.5301 15.448 22.3301C15.733 22.6581 16.515 22.8661 16.788 22.8021C16.085 22.5611 14.818 19.4421 15.894 17.8501C17.712 19.7041 19.629 21.4561 23.046 21.6231C23.254 19.3301 24.183 17.7931 25.95 17.1441Z" fill="white"/>
<path fill-rule="evenodd" clip-rule="evenodd" d="M120 16H134C135.65 16 137 17.35 137 19V29C137 30.65 135.65 32 134 32H120C118.35 32 117 30.65 117 29V19C117 17.35 118.35 16 120 16ZM123.027 20.002V27.998L132.014 24L123.027 20.002Z" fill="white"/>
</svg>
