<svg width="227" height="100" viewBox="0 0 227 100" fill="none" xmlns="http://www.w3.org/2000/svg">
<rect y="11" width="12" height="3" fill="#A9A9A9"/>
<rect y="50" width="12" height="3" fill="black"/>
<rect y="88" width="12" height="3" fill="#81B3D2"/>
<path fill-rule="evenodd" clip-rule="evenodd" d="M80.2309 13.7693V18H82.7693V13.7693H87V11.2309H82.7693V7H80.2309V11.2309H76V13.7693H80.2309Z" fill="#A9A9A9"/>
<path fill-rule="evenodd" clip-rule="evenodd" d="M80.2309 52.7693V57H82.7693V52.7693H87V50.2309H82.7693V46H80.2309V50.2309H76V52.7693H80.2309Z" fill="black"/>
<path fill-rule="evenodd" clip-rule="evenodd" d="M80.2309 90.7693V95H82.7693V90.7693H87V88.2309H82.7693V84H80.2309V88.2309H76V90.7693H80.2309Z" fill="#81B3D2"/>
<path fill-rule="evenodd" clip-rule="evenodd" d="M222.406 3.02498H225.251C226.217 3.02498 227 3.84698 227 4.86198V21.164C227 22.179 226.217 23 225.251 23H207.75C206.784 23 206 22.179 206 21.164V4.86198C206 3.84698 206.784 3.02498 207.75 3.02498H210.593V1.64798C210.593 1.26698 210.887 0.958984 211.25 0.958984C211.612 0.958984 211.906 1.26698 211.906 1.64798V3.02498H215.844V1.64798C215.844 1.26698 216.138 0.958984 216.501 0.958984C216.862 0.958984 217.156 1.26698 217.156 1.64798V3.02498H221.094V1.64798C221.094 1.26698 221.387 0.958984 221.75 0.958984C222.112 0.958984 222.406 1.26698 222.406 1.64798V3.02498ZM225.565 21.484C225.647 21.3979 225.691 21.2828 225.688 21.164H225.689V4.86198C225.689 4.60898 225.493 4.40298 225.252 4.40298H222.407V5.78098C222.407 6.16198 222.113 6.46998 221.751 6.46998C221.388 6.46998 221.095 6.16198 221.095 5.78098V4.40298H217.157V5.78098C217.157 6.16198 216.863 6.46998 216.502 6.46998C216.139 6.46998 215.845 6.16198 215.845 5.78098V4.40298H211.907V5.78098C211.907 6.16198 211.613 6.46998 211.251 6.46998C210.888 6.46998 210.594 6.16198 210.594 5.78098V4.40298H207.75C207.503 4.40953 207.307 4.61458 207.312 4.86198V21.164C207.307 21.4114 207.503 21.6164 207.75 21.623H225.251C225.37 21.6201 225.483 21.5701 225.565 21.484Z" fill="#A9A9A9"/>
<path fill-rule="evenodd" clip-rule="evenodd" d="M210.594 9.2251H213.219V11.2911H210.594V9.2251ZM210.594 12.6681H213.219V14.7351H210.594V12.6681ZM213.219 16.1121H210.594V18.1781H213.219V16.1121ZM215.188 16.1121H217.813V18.1781H215.188V16.1121ZM217.813 12.6681H215.188V14.7351H217.813V12.6681ZM215.188 9.2251H217.813V11.2911H215.188V9.2251ZM222.406 16.1121H219.781V18.1781H222.406V16.1121ZM219.781 12.6681H222.406V14.7351H219.781V12.6681ZM222.406 9.2251H219.781V11.2911H222.406V9.2251Z" fill="#A9A9A9"/>
<path fill-rule="evenodd" clip-rule="evenodd" d="M222.406 42.025H225.251C226.217 42.025 227 42.847 227 43.862V60.164C227 61.179 226.217 62 225.251 62H207.75C206.784 62 206 61.179 206 60.164V43.862C206 42.847 206.784 42.025 207.75 42.025H210.593V40.648C210.593 40.267 210.887 39.959 211.25 39.959C211.612 39.959 211.906 40.267 211.906 40.648V42.025H215.844V40.648C215.844 40.267 216.138 39.959 216.501 39.959C216.862 39.959 217.156 40.267 217.156 40.648V42.025H221.094V40.648C221.094 40.267 221.387 39.959 221.75 39.959C222.112 39.959 222.406 40.267 222.406 40.648V42.025ZM225.565 60.484C225.647 60.3979 225.691 60.2828 225.688 60.164H225.689V43.862C225.689 43.609 225.493 43.403 225.252 43.403H222.407V44.781C222.407 45.162 222.113 45.47 221.751 45.47C221.388 45.47 221.095 45.162 221.095 44.781V43.403H217.157V44.781C217.157 45.162 216.863 45.47 216.502 45.47C216.139 45.47 215.845 45.162 215.845 44.781V43.403H211.907V44.781C211.907 45.162 211.613 45.47 211.251 45.47C210.888 45.47 210.594 45.162 210.594 44.781V43.403H207.75C207.503 43.4095 207.307 43.6146 207.312 43.862V60.164C207.307 60.4114 207.503 60.6164 207.75 60.623H225.251C225.37 60.6201 225.483 60.5701 225.565 60.484Z" fill="black"/>
<path fill-rule="evenodd" clip-rule="evenodd" d="M210.594 48.2251H213.219V50.2911H210.594V48.2251ZM210.594 51.6681H213.219V53.7351H210.594V51.6681ZM213.219 55.1121H210.594V57.1781H213.219V55.1121ZM215.188 55.1121H217.813V57.1781H215.188V55.1121ZM217.813 51.6681H215.188V53.7351H217.813V51.6681ZM215.188 48.2251H217.813V50.2911H215.188V48.2251ZM222.406 55.1121H219.781V57.1781H222.406V55.1121ZM219.781 51.6681H222.406V53.7351H219.781V51.6681ZM222.406 48.2251H219.781V50.2911H222.406V48.2251Z" fill="black"/>
<path fill-rule="evenodd" clip-rule="evenodd" d="M222.406 80.025H225.251C226.217 80.025 227 80.847 227 81.862V98.164C227 99.179 226.217 100 225.251 100H207.75C206.784 100 206 99.179 206 98.164V81.862C206 80.847 206.784 80.025 207.75 80.025H210.593V78.648C210.593 78.267 210.887 77.959 211.25 77.959C211.612 77.959 211.906 78.267 211.906 78.648V80.025H215.844V78.648C215.844 78.267 216.138 77.959 216.501 77.959C216.862 77.959 217.156 78.267 217.156 78.648V80.025H221.094V78.648C221.094 78.267 221.387 77.959 221.75 77.959C222.112 77.959 222.406 78.267 222.406 78.648V80.025ZM225.565 98.484C225.647 98.3979 225.691 98.2828 225.688 98.164H225.689V81.862C225.689 81.609 225.493 81.403 225.252 81.403H222.407V82.781C222.407 83.162 222.113 83.47 221.751 83.47C221.388 83.47 221.095 83.162 221.095 82.781V81.403H217.157V82.781C217.157 83.162 216.863 83.47 216.502 83.47C216.139 83.47 215.845 83.162 215.845 82.781V81.403H211.907V82.781C211.907 83.162 211.613 83.47 211.251 83.47C210.888 83.47 210.594 83.162 210.594 82.781V81.403H207.75C207.503 81.4095 207.307 81.6146 207.312 81.862V98.164C207.307 98.4114 207.503 98.6164 207.75 98.623H225.251C225.37 98.6201 225.483 98.5701 225.565 98.484Z" fill="#81B3D2"/>
<path fill-rule="evenodd" clip-rule="evenodd" d="M210.594 86.2251H213.219V88.2911H210.594V86.2251ZM210.594 89.6681H213.219V91.7351H210.594V89.6681ZM213.219 93.1121H210.594V95.1781H213.219V93.1121ZM215.188 93.1121H217.813V95.1781H215.188V93.1121ZM217.813 89.6681H215.188V91.7351H217.813V89.6681ZM215.188 86.2251H217.813V88.2911H215.188V86.2251ZM222.406 93.1121H219.781V95.1781H222.406V93.1121ZM219.781 89.6681H222.406V91.7351H219.781V89.6681ZM222.406 86.2251H219.781V88.2911H222.406V86.2251Z" fill="#81B3D2"/>
</svg>
