<svg width="123" height="22" viewBox="0 0 123 22" fill="none" xmlns="http://www.w3.org/2000/svg">
<path d="M66 4V0H62C59.7909 0 58 1.79086 58 4V8H54V12H58V22H62V12H66V8H62V4H66Z" fill="white"/>
<path d="M10.95 4.14409C12.635 3.64809 13.934 4.41409 14.527 5.32309C15.2 5.09209 15.858 4.84209 16.538 4.61509C16.5249 5.30145 16.2117 5.94761 15.681 6.38309C16.366 6.55309 16.985 5.89209 16.985 5.89209C16.816 6.89209 15.979 7.68009 15.422 7.91609C15.191 14.6661 12.247 19.1331 5.34501 18.9981H4.89901C4.48901 18.9981 0.735007 18.5381 0.00100708 17.1111C2.27201 17.3071 3.89401 16.6891 4.69401 15.9341C3.73401 15.6341 2.01501 15.4571 1.71501 12.9841C2.06401 13.0901 2.27901 13.2121 2.90501 13.1031C1.70501 12.2471 0.374007 11.5301 0.448007 9.33009C0.733007 9.65809 1.51501 9.86609 1.78801 9.80209C1.08501 9.56109 -0.181993 6.44209 0.894007 4.85009C2.71201 6.70409 4.62901 8.45609 8.04601 8.62309C8.25401 6.33009 9.18301 4.79309 10.95 4.14409Z" fill="white"/>
<path fill-rule="evenodd" clip-rule="evenodd" d="M106 3H120C121.65 3 123 4.35 123 6V16C123 17.65 121.65 19 120 19H106C104.35 19 103 17.65 103 16V6C103 4.35 104.35 3 106 3ZM109.027 7.002V14.998L118.014 11L109.027 7.002Z" fill="white"/>
</svg>
